<svg viewBox="0 0 14 14" xmlns="http://www.w3.org/2000/svg"><path d="m6.6191767 11.545755c-.3508-.041-.5828-.082-.8247-.1488-1.5246-.4192-2.7377-1.6187-3.1737-3.1382-.059-.2072-.1072-.4336-.1406-.6667-.034-.2338-.034-.9481 0-1.1819.1724-1.2029.7529-2.2282 1.6847-2.9756.5111-.4101 1.1013-.6988 1.775-.8685.5385-.1356 1.2665-.1563 1.8652-.053 1.0699.1843 2.0775.7872 2.7687003 1.6564.4361.5485.7493 1.2164.8894 1.8964.074.3594.085.4827.085.9355 0 .4534-.011.5758-.086.9382-.1185.5753-.371 1.1623-.7111 1.653-.6628.9564-1.6866003 1.637-2.8139003 1.8707-.3211.067-.4631.08-.8768.084-.2179 0-.4166 0-.4416 0zm.3832-2.1808c.1414-.03.2659-.098.3809-.2089.055-.053.1009-.096.1025-.096 0 0 0 .057.01.1266v.1266h.1753.1754v-1.0896c0-.7942-.0007-1.0944-.011-1.1073-.02-.024-.3526-.025-.3729-.001-.01.011-.015.2452-.018.7112 0 .6294-.01.7011-.028.7659-.063.1909-.1619.3169-.3002.3832-.063.03-.1.038-.1969.043-.1652.01-.2473-.019-.3376-.1085-.1113-.111-.1082-.082-.1082-.9927 0-.5951 0-.7912-.016-.8029-.022-.022-.3498-.022-.3715 0-.021.021-.022 1.6916-.0009 1.7924.034.1622.1484.312.2929.3849.078.039.1857.074.2575.084.094.012.28.01.3636-.011zm2.2902-.019c.1225-.035.2503-.1.3575-.1811l.085-.064.033.056c.044.075.1266.1439.2042.1697.1019003.034.3286003.02.3842003-.024.017-.013.024-.2347.01-.2747-.01-.015-.025-.021-.07-.021-.034 0-.08-.01-.1016-.014-.083-.029-.081-.011-.081-.7162 0-.3708-.01-.6757-.013-.7246-.028-.181-.1477003-.338-.3170003-.4172-.1481-.069-.3036-.093-.5658-.085-.18 0-.2471.012-.3225.034-.2152.063-.3638.1776-.4424.3422-.046.097-.083.2489-.077.3203v.046h.1689c.2173 0 .2227 0 .2341-.064.021-.1262.094-.2224.2044-.2725.062-.028.085-.031.2697-.031h.2016l.088.043c.064.032.097.058.1231.096.032.049.035.064.035.1818 0 .1286 0 .1287-.042.1661-.058.052-.1341.071-.4599.1164-.331.046-.4526.075-.5772.1359-.2306.1131-.3433.296-.3433.5574 0 .21.053.345.1837.4699.083.079.1951.1369.3099.16.039.01.083.017.097.02.065.015.3284 0 .4198-.031zm-.4108-.3501c-.1339-.046-.1912-.1403-.1822-.299.01-.1.023-.134.1038-.199.071-.057.2066-.096.4941-.1405.1449-.023.2977-.052.3396-.065l.076-.024-.01.1907c0 .1774-.01.1954-.041.26-.07.1353-.2053.2348-.3814.2804-.1103.029-.3149.026-.4037 0zm-3.1003.1285v-.1883h-.7371-.7372v-1.3158c0-1.0358 0-1.3205-.016-1.3381-.014-.02-.04-.022-.2175-.019h-.2013v1.5132c0 .8322-.0005 1.5205 0 1.5295.01.013.2035.016.9581.013h.9518v-.1883zm3.4521-2.6941c.1343-.034.3294-.1197.4338-.1903.3037-.2054.5148003-.528.5830003-.8911.03-.1586.02-.449-.02-.5952-.1328-.4862-.4977003-.8494-.9876003-.983-.098-.027-.138-.03-.3507-.029-.2234.0009-.2486 0-.3572.036-.5539.1687-.9257.6052-.995 1.1682-.035.2872.035.6063.1911.8687.088.1475.2996.361.4466.4504.1619.098.3464.1654.5402.196.1278.02.372.01.5156-.031zm2.0664003-2.7345c-.4747-.1106-.8521-.4755-.9813-.9489-.026-.096-.03-.1403-.03-.3377 0-.1981 0-.2404.03-.3297.069-.2383.1847-.437.3494-.6001.5129-.50789997 1.3408-.50519997 1.8495.01.3313.333.4594.7983.3444 1.2513-.1137.4484-.4581.8036-.9111.94-.1017.031-.1429.035-.3305.039-.1755 0-.2335-.0001-.32-.02zm-4.6418003 7.8624c-.8554-.076-1.6435-.362-2.3089-.8393-.623-.4468-1.1083-1.0194-1.445-1.7049-.2262-.4604-.3638-.9144-.435-1.4352-.029-.2114-.04-.703-.02-.9417.128-1.5951 1.0781-3.0046 2.5086-3.7217 1.1741-.5886 2.5633-.6403 3.782-.1409 1.027.4209 1.8694003 1.2104 2.3614003 2.213.2276.4639.3606.9048.4367 1.4482.033.2324.033.899-.0002 1.1301-.077.5432-.2083.9818-.4306 1.4352-.2348.4792-.4983.8492-.8699 1.2217-.7259003.7277-1.6236003 1.17-2.6630003 1.3118-.1491.02-.7714.036-.9157.024zm.3321-2.2009c.042-.01.1263-.037.1865-.066.086-.041.1311-.074.211-.1542l.1017-.1016.0002.1193c.0001.066.01.1282.013.1389.015.024.2477.035.3023.014l.036-.014v-1.0881-1.0881h-.1818-.1818l-.01.6819c-.01.7408-.01.7538-.084.9157-.06.1287-.1311.2036-.2507.2627-.096.047-.1038.049-.2362.049-.1685 0-.2442-.028-.3303-.1243-.1-.1108-.099-.1045-.099-.987-.0001-.4246 0-.7795-.011-.7886-.01-.013-.054-.016-.1849-.013h-.1744v.8767c0 .8464 0 .8797.023.9631.059.1943.2351.3455.4597.3943.098.021.3146.024.4182.01zm2.2653-.013c.1415-.034.2709-.097.3908-.1892.055-.043.098-.067.1004-.058.016.048.096.1436.149.1792.086.057.1856003.077.3029003.058.1668-.026.1613-.02.1613-.17 0-.1444 0-.15-.085-.1507-.029-.0003-.071-.01-.095-.018-.082-.034-.081-.024-.081-.7384 0-.4104-.01-.6759-.014-.7248-.042-.2288-.2267003-.3928-.5119003-.4544-.1419-.031-.4667-.031-.6105-.0004-.1234.026-.2753.095-.3552.1599-.1193.098-.2107.292-.2143.4556v.087h.1815.1815l.012-.039c.052-.1737.1096-.2482.2273-.2937.1021-.039.3382-.049.4569-.019.1152.029.1938.08.2333.151.027.049.032.075.033.1706.0004.2036-.035.2246-.4934.2902-.384.055-.4464.07-.5873.1372-.2576.1237-.3817.3601-.3424.6522.036.2683.2201.4623.4946.5214.129.028.3367.025.4673-.01zm-.3716-.337c-.1326-.043-.1993-.1403-.1995-.2895-.0002-.1525.095-.2531.2976-.313.039-.012.173-.036.2987-.055.1937-.029.2765-.045.4168-.084.017 0 .019.022.019.183-.0005.1741 0 .1938-.034.2604-.061.1327-.1638.2194-.3336.2821-.1238.046-.3509.054-.4652.016zm-3.1306.2953c.02-.014.022-.038.019-.1851v-.1687l-.7338-.01-.7339-.01-.01-1.3314c0-.7322-.01-1.3328-.01-1.3346 0 0-.09 0-.1953 0-.1322 0-.1971 0-.2079.016-.012.012-.015.3633-.015 1.5034.0001.8183 0 1.4943.01 1.5022.01.01.018.018.029.022.011 0 .4261.01.923.01.7073.0008.9083 0 .9259-.015zm3.4762-2.8807c.3982-.1039.7137-.359.8906003-.7203.083-.1694.117-.2865.1367-.4695.042-.3889-.091-.7725-.3677003-1.0638-.2382-.2505-.5108-.3851-.8571-.423-.2389-.026-.4838.018-.7178.13-.3687.1761-.6356.5042-.7367.9057-.024.096-.029.1494-.028.3231.0007.1826 0 .2235.035.3374.1397.5224.5493.898 1.0926 1.0018.1351.026.4125.015.5523-.021zm2.0916003-2.7126c-.4368-.096-.8062-.4081-.963-.8132-.069-.1771-.092-.3242-.086-.5261.01-.2141.038-.3434.1251-.5261.2029-.4251.5889-.6967 1.063-.7478.551-.059 1.0896.2485 1.3291.7595.3018.6441.031 1.4229-.6048 1.736-.2058.1014-.3267.131-.5586.137-.1562 0-.2166.0002-.3052-.019zm-4.5851003 7.862c-.5019-.043-.8094-.1041-1.2128-.2401-.9488-.32-1.7872-.9698-2.3453-1.8177-.4049-.6152-.6416-1.278-.7306-2.0455-.025-.2149-.021-.7634.01-.9936.1558-1.2775.7963-2.3847 1.8238-3.1526.6485-.4847 1.4034-.7778 2.2566-.8762.1843-.021.7509-.021.9352 0 1.0904.1258 2.0116.5653 2.7672003 1.3202.75.7494 1.1949 1.6819 1.3201 2.7671.021.1838.021.7504.0001.9351-.1238 1.0803-.5707 2.0167-1.3206 2.767-.7414003.7417-1.6952003 1.1993-2.7473003 1.3179-.1282.014-.6512.027-.7534.018zm.1819-2.2138c.2065-.027.3664-.1127.5102-.2742l.073-.083.0004.1381c.0002.1018 0 .1419.018.153.012.01.066.014.1591.011h.141v-1.0878-1.0879h-.1742-.1742l-.01.6787c-.01.5761-.01.6913-.028.762-.051.1961-.1575.3467-.2945.4151-.2617.1308-.5618.054-.663-.1701l-.031-.069-.01-.8053-.01-.8053h-.1678c-.1256 0-.1705.0005-.1784.013-.015.024-.013 1.6088 0 1.7181.038.2714.2486.4587.5601.4991.1148.015.1466.015.2578.0006zm2.3764-.034c.1355-.039.2552-.101.3604-.1862.044-.036.083-.065.086-.065 0 0 .019.026.034.058.032.065.091.1228.1728.166.045.024.075.029.1717003.029.064-.0002.1419-.01.1725-.017l.056-.016v-.1325-.1325l-.078-.01c-.088-.01-.128-.026-.1523-.068-.013-.022-.018-.1975-.023-.7368l-.01-.7079-.031-.078c-.04-.1-.1586003-.2212-.2647003-.2712-.1548-.073-.2524-.09-.5156-.09-.207-.0003-.2547 0-.3442.028-.2197.06-.3675.1671-.4468.3242-.073.1453-.1054.3406-.059.3585.034.013.2912.01.318-.01.014-.01.025-.025.025-.038 0-.063.055-.169.1164-.2244.081-.072.1665-.1007.3317-.1092.229-.012.3976.044.4712.1548.033.05.035.063.035.1933 0 .1366-.0009.1406-.038.1791-.053.056-.1194.074-.4363.118-.3251.045-.4375.068-.5441.11-.2749.1077-.4192.3305-.4.6175.012.1752.07.3079.1798.4109.1826.171.5116.227.8158.139zm-.3632-.2951c-.1404-.031-.2211-.102-.2455-.2154-.019-.087-.018-.1129.01-.1913.036-.1201.1557-.1993.3692-.2439.047-.01.1702-.03.2738-.045s.2205-.036.2597-.047c.039-.011.085-.023.1007-.027l.029-.01v.1894c0 .238-.019.299-.1279.41-.1525.1556-.4302.2299-.6644.178zm-3.1697.2526c.019-.036.017-.2894 0-.3165-.015-.02-.078-.022-.7436-.025h-.7274l-.01-1.3249-.01-1.3248h-.1948-.1948v1.4923c0 1.092.0006 1.497.011 1.5099.012.015.1756.018.9348.018.8964 0 .9205-.0007.9336-.025zm3.5009-2.8768c.8959003-.2635 1.2729003-1.2832.7615003-2.0597-.064-.097-.2209003-.2597-.3250003-.3364-.2463-.1817-.5632-.275-.8716-.2566-.5825.035-1.0643.4226-1.2285.9891-.042.1449-.057.4172-.032.5738.089.5527.5199.9982 1.0786 1.1157.058.012.15.016.2922.013.1781 0 .2246-.01.3247-.039zm2.1302003-2.6706c-.2844-.044-.5658-.1924-.7679-.4056-.6184-.6519-.4277-1.7142.3782-2.1079.2005-.098.3086-.1244.5391-.132.216-.01.3584.015.5391.085.3278.1268.6217.4208.7486.7485.07.1807.092.3231.085.5392-.01.2305-.034.3387-.1322.539-.1699.3472-.4871.607-.8577.7025-.1456.038-.3955.052-.5325.031zm-4.6896003 7.8448c-.4264-.027-.8869-.1251-1.2917-.2743-.2311-.085-.6271-.2803-.8378-.4127-2.0046-1.2596-2.7305-3.8227-1.6793-5.93.2323-.4655.4978-.833.8734-1.2085.7536-.7536 1.693-1.1983 2.7867-1.3192.2198-.024.7193-.021.9482.01.9159.1094 1.7003.4389 2.4057 1.0106.1809003.1465.4865003.4514.6370003.6354 1.041 1.2729 1.3254 2.9798.7538 4.5251-.079.2136-.2779.6145-.406.8182-.3752.5968-.8644 1.0861-1.4617003 1.4618-.2102.1322-.6061.3273-.8378.4128-.5969.2203-1.2506.3152-1.8905.2743zm.273-2.2396c.1625-.029.2756-.092.4107-.2294.062-.063.1166-.115.1206-.115 0 0 .01.066.011.1461v.1462h.1494.1493v-1.0651c0-.9898 0-1.0662-.019-1.0813-.03-.022-.277-.022-.3064 0-.02.015-.022.081-.025.7046v.6884l-.036.1017c-.085.2411-.2324.3745-.4544.4122-.1681.028-.3313-.022-.4308-.1323-.1013-.1127-.099-.085-.099-.9675 0-.6941 0-.7848-.02-.8029-.016-.016-.05-.02-.1502-.02-.071 0-.1412.01-.155.013-.024.013-.025.036-.025.8425 0 .5096 0 .856.013.8989.01.039.03.105.05.1479.1166.2485.4505.3766.8132.312zm2.3056-.02c.1234-.034.2701-.1107.373-.194.044-.036.083-.065.086-.065 0 0 .024.031.045.07.079.1407.1936.1981.3710003.1865.058 0 .1212-.013.1409-.021.035-.014.036-.015.036-.1377v-.1237h-.059c-.077 0-.1375-.026-.1691-.073-.024-.036-.026-.07-.032-.7522l-.01-.7147-.043-.086c-.1170003-.2377-.3837003-.3462-.8147003-.3314-.2781.01-.4522.062-.5932.1779-.1001.082-.1775.2344-.2044.4013-.02.1227-.024.1197.1651.1155h.1632l.015-.058c.049-.1935.162-.2845.388-.3137.2351-.03.4607.034.5457.1547.034.049.039.068.044.1721.01.1319-.01.1783-.064.2263-.058.049-.1391.069-.4794.117-.1751.025-.3592.058-.4091.073-.3143.096-.4741.2973-.4741.5968 0 .3965.2924.6379.7469.6168.073 0 .1722-.018.2269-.033zm-.2919-.2682c-.2108-.028-.3202-.1353-.3213-.3152-.0007-.1168.02-.1702.089-.2338.1002-.092.1895-.1204.5612-.1758.1235-.018.2608-.045.3052-.059.044-.014.089-.025.098-.025.014-.0001.016.041.013.2109v.2111l-.045.082c-.024.045-.071.1059-.1039.1349-.1401.1247-.3909.1968-.5919.1701zm-3.2342.074v-.1623h-.7371c-.4054 0-.7385 0-.7402-.01 0 0-.01-.6022-.01-1.3345l-.01-1.3313h-.1559c-.086 0-.169-.0005-.1851 0l-.029.01v1.4913c0 .8202 0 1.4952.01 1.5 0 0 .4242.01.932.01h.9232v-.1624zm3.2796-2.6891c.1704-.018.2938-.054.4611-.1358.3311-.1613.5634003-.4283.6813003-.7829.1021-.3068.083-.6729-.051-.9705-.1306003-.2904-.4017003-.5556-.6954003-.6804-.2281-.097-.5139-.1299-.7575-.087-.7858.1371-1.2799.9278-1.059 1.6947.1489.517.6013.9002 1.1349.9612.1364.016.1474.016.2858 0zm2.3835003-2.6901c-.4493-.057-.8507-.3519-1.0458-.7682-.3328-.7102.022-1.5591.7631-1.8273.7802-.28229997 1.6333.2137 1.7761 1.0327.1321.7577-.397 1.468-1.1652 1.5643-.122.015-.199.015-.3282 0zm-5.0324003 9.2034c-.1992-.022-.1985-.022-.1876-.067.01-.02.011-.038.013-.041 0 0 .2898.018.4046.032.053.01.055.01.055.052v.045h-.062c-.034-.0008-.1344-.01-.2233-.019zm.8459-.022v-.042l.1754-.015c.096-.01.1986-.017.227-.019.046 0 .053 0 .064.031.01.023.01.04.0003.048-.015.014-.2618.04-.3855.04h-.09v-.042zm1.033-.096c-.01-.01-.01-.025-.01-.044 0-.034 0-.036.2046-.087.1125-.029.2126-.055.2225-.057.021-.01.049.064.032.08-.013.013-.3072.095-.3882.1089-.029 0-.057 0-.062-.0006zm-2.7889-.049c-.1477-.04-.2987-.086-.2987-.091 0 0 .01-.023.014-.046.01-.029.021-.039.034-.034.011 0 .108.032.216.061s.2003.057.2051.061c0 0 .01.024 0 .044-.01.044-.024.044-.1728 0zm3.7682-.2888c-.01-.019-.011-.039 0-.044.01-.01.054-.028.1078-.052.054-.023.1426-.065.1978-.092.055-.028.1033-.05.1068-.05 0 0 .015.017.026.039.019.037.019.039-.012.059-.04.026-.3728.1745-.3919.1747-.01.0001-.021-.015-.03-.034zm-4.7163-.048c-.054-.024-.1458-.068-.2048-.097l-.1074-.054.02-.039c.011-.021.025-.039.031-.039.01 0 .1019.044.2131.098l.2022.098-.013.038c-.01.021-.02.038-.028.038-.01-.0002-.059-.02-.1124-.043zm5.6321003-.4298c-.02-.03-.019-.033.01-.053.1901-.1338.3491-.2403.3586-.2403.01 0 .022.015.034.034.026.039.047.019-.1925.1838-.086.059-.163.1072-.1716.1072-.01 0-.025-.014-.037-.032zm-6.5879003-.1154c-.072-.051-.1532-.111-.1804-.1329l-.05-.04.023-.035c.013-.019.03-.033.038-.03.01 0 .082.054.164.1143.082.06.1635.118.1809.1294.031.02.031.022.01.055-.012.019-.03.034-.039.033-.01-.0006-.075-.043-.1469-.094zm3.1307-.3211c-.4264-.027-.8869-.1251-1.2917-.2743-.2311-.085-.6271-.2803-.8378-.4127-2.0046-1.2596-2.7305-3.8227-1.6793-5.93.2323-.4655.4978-.833.8734-1.2085.7536-.7536 1.693-1.1983 2.7867-1.3192.2198-.024.7193-.021.9482.01.9159.1094 1.7003.4389 2.4057 1.0106.1809003.1465.4865003.4514.6370003.6354 1.041 1.2729 1.3254 2.9798.7538 4.5251-.079.2136-.2779.6145-.406.8182-.3752.5968-.8644 1.0861-1.4617003 1.4618-.2102.1322-.6061.3273-.8378.4128-.5969.2203-1.2506.3152-1.8905.2743zm.273-2.2396c.1625-.029.2756-.092.4107-.2294.062-.063.1166-.115.1206-.115 0 0 .01.066.011.1461v.1462h.1494.1493v-1.0651c0-.9898 0-1.0662-.019-1.0813-.03-.022-.277-.022-.3064 0-.02.015-.022.081-.025.7046v.6884l-.036.1017c-.085.2411-.2324.3745-.4544.4122-.1681.028-.3313-.022-.4308-.1323-.1013-.1127-.099-.085-.099-.9675 0-.6941 0-.7848-.02-.8029-.016-.016-.05-.02-.1502-.02-.071 0-.1412.01-.155.013-.024.013-.025.036-.025.8425 0 .5096 0 .856.013.8989.01.039.03.105.05.1479.1166.2485.4505.3766.8132.312zm2.3056-.02c.1234-.034.2701-.1107.373-.194.044-.036.083-.065.086-.065 0 0 .024.031.045.07.079.1407.1936.1981.3710003.1865.058 0 .1212-.013.1409-.021.035-.014.036-.015.036-.1377v-.1237h-.059c-.077 0-.1375-.026-.1691-.073-.024-.036-.026-.07-.032-.7522l-.01-.7147-.043-.086c-.1170003-.2377-.3837003-.3462-.8147003-.3314-.2781.01-.4522.062-.5932.1779-.1001.082-.1775.2344-.2044.4013-.02.1227-.024.1197.1651.1155h.1632l.015-.058c.049-.1935.162-.2845.388-.3137.2351-.03.4607.034.5457.1547.034.049.039.068.044.1721.01.1319-.01.1783-.064.2263-.058.049-.1391.069-.4794.117-.1751.025-.3592.058-.4091.073-.3143.096-.4741.2973-.4741.5968 0 .3965.2924.6379.7469.6168.073 0 .1722-.018.2269-.033zm-.2919-.2682c-.2108-.028-.3202-.1353-.3213-.3152-.0007-.1168.02-.1702.089-.2338.1002-.092.1895-.1204.5612-.1758.1235-.018.2608-.045.3052-.059.044-.014.089-.025.098-.025.014-.0001.016.041.013.2109v.2111l-.045.082c-.024.045-.071.1059-.1039.1349-.1401.1247-.3909.1968-.5919.1701zm-3.2342.074v-.1623h-.7371c-.4054 0-.7385 0-.7402-.01 0 0-.01-.6022-.01-1.3345l-.01-1.3313h-.1559c-.086 0-.169-.0005-.1851 0l-.029.01v1.4913c0 .8202 0 1.4952.01 1.5 0 0 .4242.01.932.01h.9232v-.1624zm3.2796-2.6891c.1704-.018.2938-.054.4611-.1358.3311-.1613.5634003-.4283.6813003-.7829.1021-.3068.083-.6729-.051-.9705-.1306003-.2904-.4017003-.5556-.6954003-.6804-.2281-.097-.5139-.1299-.7575-.087-.7858.1371-1.2799.9278-1.059 1.6947.1489.517.6013.9002 1.1349.9612.1364.016.1474.016.2858 0zm1.9509003 4.9584-.028-.03.1685-.1681.1685-.1682.034.034.034.034-.166.1634c-.091.09-.17.1633-.175.1633-.01 0-.022-.013-.037-.03zm-8.1542003-.1103c-.036-.034-.109-.1066-.1613-.162l-.095-.1007.03-.032c.016-.018.036-.028.044-.023.01.01.084.081.1692.1681.1525.1564.1545.1593.1311.1851-.013.014-.03.026-.038.026-.01-.0002-.044-.028-.08-.062zm8.8545003-.6508-.031-.024.1275-.1804c.07-.099.1321-.1856.1376-.192.011-.013.076.025.076.044 0 .023-.2542.3771-.27.3766 0-.0002-.023-.011-.04-.024zm-9.5027003-.09c-.077-.1049-.2273-.3349-.2273-.3481 0-.01.014-.025.032-.036.032-.021.032-.02.087.06.03.045.089.1289.1303.1871.042.058.076.1117.076.1187 0 .011-.056.055-.068.054 0-.0002-.015-.016-.03-.036zm10.0695003-.7766c-.02-.011-.036-.024-.036-.03 0-.01.044-.1017.098-.2126l.098-.2018.039.015c.033.013.038.02.031.047-.01.034-.1832.4037-.1904.4028 0-.0003-.02-.01-.04-.02zm-10.6024003-.1016c-.029-.044-.175-.3693-.175-.3896 0-.02.065-.052.078-.038 0 .01.037.072.071.1468.034.075.075.167.093.2044l.031.068-.038.02c-.037.019-.039.018-.059-.012zm10.9916003-.8544c-.029-.011-.034-.018-.027-.041.01-.015.033-.1156.063-.2228l.054-.1948h.038c.021 0 .041.01.044.01.014.014-.1096.4606-.1267.4586-.01-.0005-.025-.01-.045-.014zm-11.4182003-.2737c-.027-.1018-.05-.2056-.051-.2306 0-.042.001-.046.038-.049h.04l.054.2121c.03.1167.054.2186.054.2265 0 .013-.039.03-.072.03-.01.0001-.036-.083-.063-.1849zm11.6321003-.7379c-.016-.01-.027-.016-.024-.022 0-.01.013-.077.02-.1592.031-.3151.023-.2857.074-.2857.041 0 .044 0 .044.039 0 .059-.039.4176-.047.4303-.01.014-.029.013-.068 0zm-11.7897003-.1064c-.01-.03-.032-.2838-.032-.3748v-.09h.043.043l.016.2152c.01.1183.019.2228.022.232 0 .01-.01.02-.024.025-.045.012-.063.01-.069-.01zm11.8204003-.9352c-.01-.029-.037-.439-.03-.4458 0 0 .023-.01.044-.01.034 0 .038 0 .046.056.01.032.013.1388.019.2371l.01.1786h-.041c-.023 0-.044-.01-.046-.016zm-11.8528003-.127c0-.072.04-.4215.049-.4304.01 0 .025-.01.045 0 .042.01.041 0 .022.211-.025.2774-.02.2605-.072.2605-.041 0-.045 0-.045-.039zm11.6707003-1.0738c-.07-.2734-.069-.2593-.02-.2701.023-.01.043-.01.045 0 .012.014.099.3655.1018.4081 0 .048.0009.051-.037.055h-.04l-.049-.1923zm-11.4856003.091c-.02 0-.029-.015-.029-.034-.0001-.031.1-.3966.1153-.4218.013-.022.097.01.088.03-.01.016-.069.2396-.1019.3628-.018.067-.024.072-.072.063zm11.2040003-.9357c-.015-.034-.058-.1282-.097-.2094-.039-.081-.07-.1498-.07-.1523 0 0 .017-.013.038-.024.032-.016.04-.017.053 0 .019.023.1825.3856.1826.4047 0 .012-.053.044-.073.044 0 0-.018-.028-.033-.062zm-10.8728003-.045c-.02-.01-.036-.021-.036-.032s.044-.1099.097-.2204l.097-.2009.04.02c.044.023.049.04.021.079-.01.014-.052.099-.093.188s-.078.1656-.082.1701c0 0-.024 0-.044 0zm.483-.9176-.031-.025.05-.076c.073-.1112.2166-.3035.2264-.3032.01.0002.023.012.041.025l.032.025-.032.043c-.018.024-.078.1074-.1343.186-.056.079-.1066.1445-.1119.1465-.01 0-.024-.01-.041-.021zm9.3852003 0c-.4493-.057-.8507-.3519-1.0458-.7682-.3328-.7102.022-1.5591.7631-1.8273.7802-.28229997 1.6333.2137 1.7761 1.0327.1321.7577-.397 1.468-1.1652 1.5643-.122.015-.199.015-.3282 0zm-8.7442003-.8055-.028-.028.046-.056c.025-.031.1009-.1064.1684-.1684.1195-.1097.1235-.1121.1483-.09.014.013.026.03.026.038 0 .014-.3116.3323-.3252.3323 0 0-.019-.013-.035-.028zm.7694-.6942c-.012-.019-.017-.038-.011-.043.021-.019.2323-.1649.306-.212l.074-.048.02.028c.011.016.02.035.02.043 0 .01-.042.043-.094.077s-.1335.091-.1817.1253c-.048.035-.093.063-.099.063-.01 0-.022-.015-.034-.034zm6.2278-.486c-.025-.014-.1138-.058-.1974-.097l-.1519-.072.014-.039c.01-.021.022-.039.032-.039s.1092.044.2202.097l.2019.097-.02.04c-.024.046-.036.048-.098.013zm-5.3448-.052c-.019-.036-.018-.039.01-.058.043-.028.3722-.1764.3917-.1764.021 0 .052.065.038.079-.01.01-.069.036-.1402.068-.071.032-.1634.073-.2044.092l-.075.034-.02-.038zm4.3771-.339c-.043-.014-.1364-.04-.2078-.059-.071-.019-.1341-.038-.1393-.042 0 0 0-.026.001-.047.01-.028.017-.038.035-.035.043.01.4017.1077.4183.118.012.01.013.02 0 .051-.01.023-.018.041-.023.04 0-.0006-.043-.012-.086-.026zm-3.4094-.025c-.035-.065-.027-.07.2089-.1301.2364-.06.2449-.06.2454.01.0002.025-.018.032-.1719.07-.095.023-.194.05-.2207.059-.044.015-.05.014-.062-.01zm1.0064-.2214c0-.023 0-.046 0-.052.014-.013.2654-.039.3835-.039h.089v.043.043l-.2152.016c-.1183.01-.223.019-.2325.023-.011 0-.021-.01-.026-.034zm1.234.019c-.086-.01-.166-.017-.1786-.018-.017-.001-.023-.013-.023-.047 0-.042 0-.046.039-.046.072 0 .4216.04.4305.049.01.01.01.025 0 .045-.01.042-.015.042-.2703.016zm-.3043 11.8404c-.01-.01-.014-.031-.012-.06v-.051l.1104-.01c.061-.01.1659-.015.2338-.022.1075-.011.1255-.01.1396.01.018.024.022.089 0 .099-.01.01-.1972.025-.3866.038-.044 0-.086 0-.095 0zm-.871-.022c-.089-.01-.1678-.024-.1745-.031-.01-.01-.01-.031 0-.061.01-.041.017-.049.045-.047.1014.01.4006.034.426.038.026.01.03.012.026.061v.055h-.078c-.043 0-.1509-.01-.2402-.017zm1.8898-.1249c0-.01-.01-.034-.01-.055v-.039l.1364-.034c.075-.019.18-.047.2333-.062.053-.015.1018-.023.1076-.017.01.01.014.032.018.058.01.057.016.054-.2391.119-.1932.049-.2348.055-.2435.029zm-2.7797-.041c-.2577-.07-.3052-.087-.3052-.1039 0-.033.029-.098.043-.098.01.0001.071.017.1384.037.068.02.1662.047.2186.06.052.013.098.03.1014.039.01.022-.013.1013-.028.1052-.01 0-.083-.016-.1683-.039zm3.7654-.2879c-.011-.026-.018-.052-.015-.059 0-.011.3722-.1849.4264-.2016.013 0 .027.01.042.041.012.026.022.049.022.053 0 .012-.4258.214-.451.214 0 0-.014-.021-.024-.047zm-4.7265-.056c-.057-.027-.1492-.071-.2046-.098-.055-.026-.1006-.055-.1006-.064 0-.01.011-.034.025-.057l.025-.041.1987.095c.1092.052.2089.098.2214.1028.012 0 .023.014.023.022 0 .031-.041.091-.062.09-.012-.0002-.069-.023-.1263-.05zm5.6451003-.4213c-.015-.024-.027-.048-.027-.052 0 0 .079-.062.1766-.1283.097-.066.1872-.1284.2001-.1377.02-.015.028-.012.057.019.018.02.034.043.034.052 0 .01-.022.032-.049.053-.061.047-.3225.2226-.3463.2317-.01 0-.029-.011-.045-.038zm-6.5159003-.068c-.1854-.1261-.3047-.2199-.3043-.2394.0006-.028.048-.081.067-.076.037.01.3853.2654.3859.2835.0004.011-.013.036-.029.057l-.03.037-.09-.062zm3.1438-.3786c-1.4122-.07-2.724-.7926-3.5338-1.9475-.9673-1.3795-1.1019-3.1779-.3505-4.681.3551-.7104.8976-1.3274 1.5527-1.7664 1.3217-.8854 3.0078-1.0218 4.4618-.3608.718.3265 1.3879003.8847 1.8449003 1.5374.6754.9648.9531 2.1326.7843 3.298-.1521 1.0498-.6744 2.0291-1.4603 2.7378-.5177003.4669-1.1806003.8342-1.8314003 1.0146-.4828.1339-.9872.1916-1.4677.1679zm.1948-2.2447c.1599-.028.2755-.093.4112-.2305.062-.063.1157-.1138.1197-.1138 0 0 .01.066.011.1461v.1462h.1458c.1424 0 .1459 0 .1529-.026 0-.016.01-.5002 0-1.0753v-1.0456h-.1688-.1689l-.01.6949-.01.6949-.036.1017c-.084.2364-.2163.3621-.4298.4069-.2342.049-.4543-.05-.5302-.2397-.03-.074-.03-.076-.034-.87v-.7959h-.1648-.1648v.8311c0 .5077 0 .8581.01.9006.041.221.2049.3897.4364.4486.148.038.2748.042.4277.015zm2.3052-.02c.1234-.034.2701-.1107.373-.194.044-.036.083-.065.086-.065 0 0 .024.031.045.07.046.082.1198.1442.2043.173.067.023.2417003.019.3077003-.01.035-.014.036-.015.036-.1377v-.1237h-.059c-.076 0-.1409-.028-.1707-.073-.022-.034-.024-.087-.03-.7515l-.01-.7153-.043-.087c-.073-.1482-.2193003-.2529-.4263003-.3051-.1283-.032-.5321-.032-.6611.0003-.309.078-.4769.2551-.5251.5545-.019.117-.017.1182.1718.1138h.1559l.022-.081c.057-.2084.2018-.2949.4935-.2949.2276 0 .3635.051.4383.1637.034.051.036.063.036.1937 0 .1309 0 .1417-.033.1743-.035.037-.1026.076-.1566.089-.018 0-.1762.028-.3508.053s-.3584.058-.4084.073c-.3143.096-.474.2973-.474.5968 0 .3977.2908.638.7468.6168.073 0 .1722-.018.227-.033zm-.3179-.2721c-.1938-.029-.2949-.1375-.2956-.3174-.0004-.1074.021-.1655.082-.2253.091-.089.2296-.1312.6018-.1848.1066-.015.2293-.039.2728-.053.043-.014.087-.025.096-.025.014-.0001.016.041.013.2109 0 .192-.01.217-.036.2761-.1097.2249-.4295.3637-.734.3182zm-3.2082.078v-.1623h-.7371c-.4054 0-.7385 0-.7402-.01 0 0-.01-.6022-.01-1.3345l-.01-1.3313h-.1559c-.086 0-.169-.0005-.1851 0l-.029.01v1.4913c0 .8202 0 1.4952.01 1.5 0 0 .4242.01.932.01h.9232v-.1624zm3.2796-2.6891c.1704-.018.2938-.054.4611-.1358.3554-.1732.6019003-.4764.7108003-.8746.038-.1402.041-.4827 0-.6257-.034-.1369-.091-.275-.1617-.3956-.076-.1299-.2841003-.3448-.4149003-.4288-.5799-.3722-1.3495-.2499-1.7754.2821-.5448.6807-.3164 1.6794.4704 2.0561.1562.075.3521.122.5553.1338.014.0008.082 0 .1494-.012zm1.9345003 4.9609-.029-.04.1674-.1674c.092-.092.1732-.1676.1804-.1677.015-.0003.084.061.084.076 0 .02-.3339.3398-.3541.3398-.011 0-.034-.018-.049-.04zm-8.2390003-.1926c-.1076-.1088-.1646-.1757-.1617-.1902 0-.012.021-.034.04-.049l.036-.027.1685.1682c.093.092.1686.1747.1686.1827 0 .017-.059.083-.075.083-.01 0-.086-.076-.1771-.1679zm8.9445003-.5588c-.016-.013-.029-.031-.029-.038 0-.01.034-.06.075-.1151.041-.056.101-.1402.1331-.188.032-.048.067-.087.078-.087.011-.0002.036.013.056.029l.037.03-.062.09c-.126.1854-.2198.3048-.2393.3043-.011-.0002-.033-.011-.049-.025zm-9.5082003-.1014c-.055-.069-.2366-.3417-.2366-.3542 0-.01.08-.065.095-.065 0 0 .039.048.078.1072.039.059.1008.1492.1375.2005l.067.093-.036.033c-.02.018-.043.033-.051.033-.01 0-.033-.022-.054-.049zm10.0669003-.7693-.042-.026.068-.1399c.038-.077.084-.1765.1034-.2212.019-.045.041-.081.049-.081.031 0 .091.041.091.062 0 .033-.1972.4317-.2134.4317-.01 0-.033-.012-.056-.026zm-10.5864003-.081c-.026-.032-.1986-.4264-.1915-.4379.011-.019.099-.043.1096-.031 0 .01.035.07.065.141.031.071.073.1633.093.2042.02.041.037.079.037.085 0 .01-.081.055-.096.055 0 0-.01-.01-.018-.016zm10.9811003-.8695c-.043-.016-.044 0 .024-.2443.071-.26.062-.2406.1094-.2384.078 0 .081.016.04.172-.09.3416-.089.3412-.1731.3107zm-11.3734003-.1205c-.027-.07-.1053-.4011-.1015-.4272 0-.019.017-.03.049-.036.025-.01.049-.01.054 0 0 0 .019.048.03.1.012.052.038.1552.059.23.021.075.033.1408.027.1466-.01.01-.032.014-.058.018-.043.01-.049 0-.061-.028zm11.5876003-.8911c-.023-.01-.029-.019-.024-.041 0-.016.014-.1051.022-.1979.023-.2686.018-.2533.079-.2533.037 0 .054.01.06.023.01.023-.03.4513-.043.4722-.01.015-.055.014-.095 0zm-11.7871003-.1c-.01-.01-.028-.228-.039-.3879 0-.044 0-.086 0-.095.01-.01.031-.014.06-.011h.051l.01.1104c.01.061.015.1659.021.2338.01.082.01.1288 0 .1396-.014.018-.096.023-.1055.01zm11.8182003-.9417c0-.01-.012-.1039-.02-.2111-.01-.1071-.018-.2075-.022-.223-.01-.034.032-.06.083-.054.03 0 .036.012.044.062.014.089.036.4192.029.4311-.011.017-.1091.012-.1149-.01zm-11.8468003-.2338c.01-.08.016-.1929.024-.25l.015-.1039h.051c.028 0 .055.01.061.013 0 .01.001.077-.01.1592-.01.082-.018.1757-.018.2078 0 .1052-.01.1169-.075.1169h-.059l.01-.1461zm11.7175003-.7743c0-.01-.019-.06-.033-.1202-.014-.06-.04-.1614-.058-.2255-.018-.064-.028-.1214-.022-.1271.01-.01.032-.014.058-.018.057-.01.055-.014.1197.242.049.1932.054.2324.029.2401-.05.015-.087.019-.093.01zm-11.5351003-.1017c-.014 0-.03-.01-.035-.015-.02-.019.1123-.4825.1379-.4825.01 0 .036.01.059.015.049.017.052-.01-.03.284-.06.2117-.062.216-.1315.1988zm11.2129003-.9099c-.01-.02-.052-.1172-.097-.2167-.045-.1-.082-.1847-.082-.1892 0-.01.084-.052.099-.052.01 0 .16.3169.1919.4l.021.056-.045.019c-.062.026-.07.024-.088-.017zm-10.8909003-.081-.042-.025.033-.075c.087-.196.1752-.3674.1899-.3674.01.0001.035.012.058.026l.042.026-.075.1529c-.041.084-.088.1837-.1041.2212-.016.037-.036.068-.045.068-.01 0-.035-.012-.058-.025zm.4852-.9134-.037-.03.062-.09c.1272-.1871.22-.3048.2404-.3048.033 0 .086.063.071.084-.1598.2321-.2633.3693-.2789.3697-.011.0002-.036-.013-.056-.029zm9.3674003-.015c-.443-.073-.821-.3581-1.0112-.7639-.2618-.5587-.1023-1.2316.3832-1.616.2372-.1878.5295-.2896.8314-.2896.6435 0 1.1894.4451 1.3176 1.0742.1473.723-.3183 1.4286-1.0447 1.5831-.1337.029-.3443.034-.4763.012zm-8.7166003-.7876c-.02-.015-.036-.034-.036-.042 0-.024.3289-.3462.3533-.3462.012 0 .035.018.05.04l.029.04-.1673.1676c-.092.092-.1731.1674-.1803.1671-.01-.0002-.029-.012-.049-.027zm.7663-.693c-.013-.017-.023-.037-.023-.045 0-.022.3723-.2866.4033-.2866.01 0 .064.08.064.095 0 0-.049.039-.1085.078-.06.039-.1456.098-.191.1307-.045.033-.091.06-.1025.06-.011-.0002-.03-.014-.043-.032zm6.2704-.4716c-.021-.011-.1171-.057-.2125-.102-.095-.045-.1764-.084-.1798-.088-.01-.01.026-.098.042-.104.012 0 .4259.1869.4454.2064.01.01-.024.081-.042.096-.01.01-.029 0-.054-.01zm-5.3887-.068c-.04-.067-.047-.062.2947-.2154.07-.032.1325-.054.1386-.05.018.011.043.099.031.1094-.01.01-.07.035-.141.065-.071.031-.1633.073-.2042.093-.041.021-.079.037-.085.037-.01 0-.021-.018-.034-.04zm4.4145-.3274c-.021-.01-.1179-.036-.2143-.063l-.1754-.048v-.049c0-.027.01-.054.013-.059.01-.01.2913.058.422.1008.066.022.07.03.047.094-.015.044-.032.048-.096.025zm-3.4489-.044c-.01-.02-.016-.043-.019-.052 0-.01 0-.021.011-.029.019-.016.4046-.1182.4453-.1183.031-.0001.044.023.044.077 0 .035 0 .038-.094.059-.082.02-.285.073-.3507.092-.016 0-.027 0-.036-.03zm2.3579-.1801c-.071-.01-.1592-.017-.1949-.018-.1129 0-.1234-.01-.1234-.076v-.059l.1332.01c.2074.013.3619.036.3688.054.01.027-.015.1036-.035.1052-.01.0008-.077-.01-.1486-.015zm-1.3432-.011c-.01-.01-.014-.038-.012-.062 0-.041.01-.043.069-.052.103-.014.401-.034.4189-.027.017.01.023.1015.01.1116 0 0-.097.012-.2046.02-.1071.01-.2099.018-.2285.021-.021 0-.04-.0005-.05-.013zm.1872 11.8296c-.021 0-.095-.011-.1636-.019-.069-.01-.1324-.019-.142-.025-.014-.01-.015-.025-.01-.074.014-.073-.012-.068.2589-.044.2925.026.2683.017.2637.096v.068h-.084c-.046.0009-.102-.0006-.1234 0zm.7268-.01c0-.011-.01-.043 0-.07v-.05l.1104-.01c.061-.01.1718-.015.2468-.022.1576-.015.1729-.01.1662.084 0 .051-.01.052-.062.061-.032.01-.1474.013-.2562.018-.1722.01-.1987.01-.2054-.011zm1.0467-.1134c-.025-.015-.041-.108-.023-.1262.01-.01.089-.034.1781-.056.089-.022.1907-.049.2253-.061.073-.024.086-.016.1111.06.02.06.011.065-.1716.1155-.2166.06-.3028.078-.3201.067zm-2.7672-.051c-.2392-.064-.3259-.093-.3335-.1129 0-.011.001-.041.011-.067.015-.038.025-.048.05-.047.025.0009.3668.089.4523.1169.031.01 0 .15-.036.1476 0-.0004-.07-.017-.1446-.037zm3.7406-.2903c-.045-.074-.036-.092.062-.1336.048-.02.1456-.065.2164-.099.071-.034.1367-.062.1464-.062.021 0 .069.075.069.107 0 .014-.027.036-.075.06-.077.039-.3763.1706-.3872.1706 0 0-.018-.019-.032-.042zm-4.7277-.06c-.2053-.093-.2992-.1434-.3068-.1631-.01-.019.041-.1241.058-.1241.01 0 .06.025.1199.056.06.031.1583.078.2176.1044.059.027.1108.056.1145.066.01.02-.034.1143-.053.1195-.01 0-.074-.024-.1494-.059zm5.6432003-.423c-.019-.025-.032-.053-.03-.063 0-.01.069-.062.1472-.1151.079-.053.1712-.1168.2058-.1414l.063-.045.038.045c.021.025.038.055.038.066 0 .026-.3808.298-.417.298-.01 0-.026-.02-.044-.045zm-6.5070003-.062c-.1181-.081-.3008-.2167-.3165-.2356-.017-.021.041-.1125.071-.1125.016 0 .1291.077.3812.2578.024.017.029.03.023.055-.01.033-.054.091-.071.089 0-.0003-.044-.025-.087-.054zm3.0913-.3821c-.9831-.064-1.9031-.4279-2.6562-1.0496-.1832-.1513-.4662-.4342-.6208-.6207-1.2208-1.4724-1.3956-3.565-.4366-5.2266.4417-.7654 1.1308-1.4171 1.9138-1.81.8664-.4348 1.8251-.5839 2.7926-.4343 1.9605.3032 3.5221003 1.8672 3.8256003 3.8314.1795 1.1613-.073 2.299-.7272 3.2786-.291.4357-.7141.871-1.1488003 1.1818-.7585.5424-1.6478.8348-2.5852.85-.1536 0-.3143 0-.3572-.0006zm.2987-2.285c.1366-.036.2259-.092.3552-.2231.069-.07.1263-.1184.1327-.112.01.01.013.076.015.154v.1427h.1364.1364v-1.0586-1.0586h-.1513-.1513l-.01.6661c-.01.6282-.01.6718-.034.7676-.07.2583-.2166.4128-.4473.4719-.1514.039-.3397-.0004-.4484-.093-.032-.027-.071-.081-.096-.1327l-.043-.087v-.7962-.7963h-.152-.1519v.8053c0 .8358.001.9336.05 1.0439.099.2236.3605.3503.6842.3314.059 0 .1392-.015.1787-.025zm2.2643-.014c.158-.046.2706-.1081.3891-.2154.03-.028.061-.047.068-.042.01 0 .025.032.04.062.083.1649.2355003.2305.4453003.1909l.086-.016v-.1154-.1154h-.062c-.07 0-.1324-.032-.1682-.086-.022-.033-.024-.09-.03-.7443-.01-.7775-.01-.7524-.089-.8752-.068-.098-.1892-.1717-.3631-.2194-.084-.023-.1357-.027-.3397-.027-.2621 0-.3602.017-.5123.089-.1888.089-.332.3147-.332.5224v.056h.151.1509l.024-.079c.061-.198.1867-.2825.4474-.2999.1984-.013.3671.029.4588.1165.07.066.092.1284.092.2597.0006.2277-.045.2562-.5093.3209-.366.051-.446.069-.5775.1301-.1762.082-.2767.1975-.3218.3704-.054.2058.01.4515.1437.5846.177.172.5037.2288.8083.1407zm-.3614-.2442c-.099-.023-.1326-.038-.186-.085-.062-.055-.093-.14-.092-.2535.001-.1461.062-.2337.2069-.3002.094-.043.1906-.066.4409-.1029.2347-.035.2947-.047.3761-.079.032-.012.055-.015.063-.01.01.01.01.103.01.2247 0 .2027-.01.216-.041.2876-.1178.2399-.4733.3847-.7749.3155zm-3.1887.071v-.1494h-.7332c-.5667 0-.7355-.01-.7434-.019-.01-.01-.01-.6079-.01-1.3312l-.0002-1.3151h-.1753-.1754v1.4873 1.4873h.919.9189v-.1494zm3.4198-2.7222c.2587-.053.4765-.1697.6654-.3561.1305-.1289.1889003-.208.2641003-.3584.2753-.5502.1258-1.2341-.3538003-1.6185-.5423-.4347-1.3144-.3852-1.7948.1151-.1519.1582-.2506.3301-.3193.5564-.033.1082-.036.1343-.036.3507-.0007.2053 0 .2473.029.3442.037.136.1259.3268.202.4335.1929.2703.4999.4688.8265.5343.1215.024.3955.024.5168 0zm1.8029003 5.0095c-.02-.021-.034-.046-.032-.055.01-.027.3418-.3487.3635-.3487.024 0 .089.066.089.09 0 .025-.3372.3515-.3631.3515-.012 0-.038-.017-.058-.038zm-8.2440003-.1991c-.092-.094-.1674-.181-.1674-.1924 0-.027.07-.094.093-.088.027.01.3486.3423.3486.3638 0 .023-.066.089-.09.089-.01 0-.092-.077-.1844-.1719zm8.9593003-.5501c-.026-.018-.048-.042-.048-.053s.037-.071.082-.1326c.045-.062.1067-.1488.1369-.1934.032-.048.064-.081.077-.081s.042.016.067.036l.044.037-.069.1031c-.078.1162-.215.2995-.2314.3096-.01 0-.032-.01-.058-.026zm-9.5708003-.1775c-.1327-.1888-.1924-.28-.1924-.2941 0-.018.082-.079.1052-.079.01.0001.06.063.1114.1396.051.077.1156.1706.1429.2089l.05.07-.045.038c-.025.021-.054.038-.066.038s-.058-.052-.1056-.1201zm10.1174003-.699c-.027-.014-.049-.031-.049-.036 0-.01.032-.076.072-.1554.039-.079.086-.1769.1033-.2164.017-.04.04-.075.049-.079.02-.01.1076.026.1198.046.01.013-.1386.3447-.1879.4258-.03.049-.041.05-.1073.015zm-10.6546003-.2131c-.062-.1321-.1358-.3022-.1358-.3145 0 0 .019-.016.042-.03.062-.038.094-.034.1144.016.01.023.054.1232.099.2222s.082.1853.082.1918c0 .016-.08.063-.108.063-.017 0-.042-.039-.094-.1489zm11.0493003-.741c-.035-.015-.043-.025-.038-.049.01-.03.111-.4177.1213-.4497 0-.013.02-.016.061-.01.091.014.093.022.049.1901-.021.082-.052.1895-.069.2395-.033.1012-.049.1112-.1254.078zm-11.3634003-.087c-.029-.037-.1344-.4677-.1204-.4904.015-.024.1078-.04.1256-.022.012.012.091.2916.1301.4589 0 .023 0 .031-.055.049-.074.025-.064.025-.08 0zm11.5824003-.9175c-.037-.011-.037 0-.014-.2547.025-.2897.017-.2663.093-.2663.048 0 .067.01.073.022.01.021-.016.3513-.033.4526-.01.046-.013.052-.048.054-.021 0-.053 0-.071-.01zm-11.7984003-.1024c-.01-.01-.023-.1892-.04-.4078-.01-.103 0-.1181.086-.1123h.056l.01.1104c0 .061.016.1718.023.2468.012.1228.011.138-.01.1526-.024.018-.1158.022-.1258.01zm11.8184003-.9414c0-.01-.012-.1039-.02-.2111-.01-.1071-.018-.2137-.022-.2368-.01-.037 0-.044.029-.056.02-.01.054-.012.076-.01.035 0 .041.01.049.056 0 .029.014.147.018.2631l.01.211h-.067c-.043 0-.069-.01-.073-.016zm-11.8488003-.1092c-.016-.043.03-.4844.053-.5077h.069c.072.014.067-.012.043.2587-.025.2897-.017.2663-.093.2663-.048 0-.067-.01-.073-.021zm11.7301003-.8976c-.01-.01-.022-.042-.031-.081-.01-.039-.036-.1442-.061-.233-.048-.1763-.047-.1803.028-.2049.021-.01.046-.01.055-.01.018.01.066.1553.112.3514.028.1173.029.1359.012.1526-.01.011-.03.019-.043.019s-.032 0-.041.01c-.01 0-.024 0-.032 0zm-11.5350003-.103c-.061-.012-.062-.03 0-.2401.064-.2355.083-.2834.1104-.2834.033 0 .1107.036.1107.052 0 .01-.021.088-.047.1792-.026.091-.055.196-.065.2335-.02.072-.025.075-.1047.059zm11.2000003-.9266c-.012-.029-.056-.1271-.099-.2184-.043-.091-.078-.1731-.078-.1817 0-.019.076-.067.1079-.067.017-.0001.04.035.083.1266.063.1359.1471.3267.1471.3358 0 .013-.087.057-.1122.057-.02.0001-.033-.014-.049-.052zm-10.8794003-.061c-.034-.017-.045-.03-.042-.052.01-.045.1941-.4313.2156-.4395.02-.01.1.027.1141.05.01.01-.1517.367-.1961.4418-.017.029-.034.029-.091-.0001zm.4906-.909c-.019-.012-.038-.03-.042-.04 0-.01.018-.054.047-.098.076-.1129.2269-.3163.2412-.3251.018-.011.1072.054.1072.078 0 .011-.037.071-.082.1326-.045.062-.1068.1488-.1369.1935-.058.086-.077.094-.1347.059zm9.3469003-.023c-.7821-.1382-1.2843-.9094-1.0903-1.6741.064-.2509.1936-.4687.3908-.6549.1726-.1631.3547-.2645.5905-.329.1497-.041.4365-.048.5975-.014.5539.1155.9684.5366 1.0724 1.0897.029.1558.02.4217-.019.5757-.035.1377-.147.3692-.2318.4806-.1864.2449-.4588.4261-.755.502-.1588.041-.4012.051-.5549.024zm-8.7111003-.7958c-.019-.02-.035-.045-.035-.054 0-.025.3372-.3515.3631-.3515.023 0 .092.064.092.086 0 .021-.3356.3485-.3612.3527-.012 0-.039-.013-.058-.033zm.7777-.682c-.019-.024-.034-.053-.034-.064 0-.032.3928-.3029.423-.2913.018.01.07.083.07.1024 0 .01-.025.027-.055.048s-.1195.083-.1981.1377c-.079.055-.1495.1021-.1577.1053-.01 0-.03-.014-.049-.039zm6.269-.471c-.016-.011-.112-.058-.214-.1052-.1019-.047-.1878-.087-.1907-.09-.01-.01.025-.1059.043-.1213.014-.012.047 0 .1516.045.2046.092.3112.148.3187.1676.011.03-.044.1231-.073.1239 0 .0001-.02-.01-.035-.02zm-5.394-.074c-.047-.077-.04-.085.2018-.1947.1214-.055.225-.1008.2302-.1008.016 0 .048.057.056.099.01.036 0 .041-.035.057-.024.01-.1244.054-.2234.1-.099.045-.1853.082-.1918.082-.01 0-.023-.019-.038-.042zm4.3062-.3565c-.086-.025-.1873-.054-.2256-.064l-.07-.019.01-.053c.013-.097.02-.098.24-.038.2313.062.2886.084.2886.1121 0 .043-.038.1107-.061.1093-.013-.0008-.093-.022-.1793-.047zm-3.3425-.01c-.035-.095-.03-.1153.037-.1331.2287-.061.3897-.099.4186-.099.028 0 .037.01.043.036 0 .02.01.044.013.055 0 .011.0007.026 0 .033 0 .01-.1059.039-.2238.07-.2951.077-.2705.074-.2836.038zm2.3229-.189c-.096-.01-.2002-.021-.2306-.025l-.055-.01v-.065c0-.048 0-.067.022-.073.042-.016.4844.03.5072.053v.069c-.014.074-.001.072-.2385.047zm-1.3115-.016c-.01-.015-.013-.05-.011-.076 0-.047.01-.048.069-.057.1476-.021.4289-.034.4449-.021.01.01.016.039.016.071 0 .034-.01.059-.016.063-.01 0-.098.012-.1981.019-.1.01-.2061.017-.2359.022-.046.01-.056 0-.069-.02z"/></svg>